<svg width="28" height="28" viewBox="0 0 28 28" xmlns="http://www.w3.org/2000/svg">
<path d="M28 14C28 17.713 26.525 21.274 23.8995 23.8995C21.274 26.525 17.713 28 14 28C10.287 28 6.72601 26.525 4.10051 23.8995C1.475 21.274 0 17.713 0 14C0 10.287 1.475 6.72601 4.10051 4.10051C6.72601 1.475 10.287 0 14 0C17.713 0 21.274 1.475 23.8995 4.10051C26.525 6.72601 28 10.287 28 14ZM14.875 7.875C14.875 7.64294 14.7828 7.42038 14.6187 7.25628C14.4546 7.09219 14.2321 7 14 7C13.7679 7 13.5454 7.09219 13.3813 7.25628C13.2172 7.42038 13.125 7.64294 13.125 7.875V13.125H7.875C7.64294 13.125 7.42038 13.2172 7.25628 13.3813C7.09219 13.5454 7 13.7679 7 14C7 14.2321 7.09219 14.4546 7.25628 14.6187C7.42038 14.7828 7.64294 14.875 7.875 14.875H13.125V20.125C13.125 20.3571 13.2172 20.5796 13.3813 20.7437C13.5454 20.9078 13.7679 21 14 21C14.2321 21 14.4546 20.9078 14.6187 20.7437C14.7828 20.5796 14.875 20.3571 14.875 20.125V14.875H20.125C20.3571 14.875 20.5796 14.7828 20.7437 14.6187C20.9078 14.4546 21 14.2321 21 14C21 13.7679 20.9078 13.5454 20.7437 13.3813C20.5796 13.2172 20.3571 13.125 20.125 13.125H14.875V7.875Z" fill="currentColor"/>
</svg>
