<svg width="24" height="25" viewBox="0 0 24 25" fill="none" xmlns="http://www.w3.org/2000/svg">
<g clip-path="url(#clip0_6_45565)">
<path d="M12 3.73398C15 3.73398 15.36 3.74523 16.5458 3.79923C17.2593 3.80766 17.9662 3.93882 18.6353 4.18698C19.1237 4.36731 19.5656 4.65486 19.9283 5.02848C20.3019 5.39116 20.5894 5.833 20.7698 6.32148C21.0179 6.99058 21.1491 7.6974 21.1575 8.41098C21.2115 9.59898 21.225 9.95898 21.225 12.959C21.225 15.959 21.2138 16.319 21.1598 17.5047C21.1513 18.2183 21.0202 18.9251 20.772 19.5942C20.5847 20.0792 20.2981 20.5196 19.9305 20.8872C19.5629 21.2548 19.1225 21.5415 18.6375 21.7287C17.9684 21.9769 17.2616 22.1081 16.548 22.1165C15.3623 22.1705 15.006 22.1817 12.0023 22.1817C8.9985 22.1817 8.64225 22.1705 7.4565 22.1165C6.74291 22.1081 6.0361 21.9769 5.367 21.7287C4.87852 21.5484 4.43668 21.2609 4.074 20.8872C3.70038 20.5246 3.41282 20.0827 3.2325 19.5942C2.98434 18.9251 2.85317 18.2183 2.84475 17.5047C2.7885 16.319 2.775 15.9627 2.775 12.959C2.775 9.95523 2.78625 9.59898 2.84025 8.41323C2.84867 7.69965 2.97984 6.99283 3.228 6.32373C3.40898 5.83504 3.69731 5.39319 4.07175 5.03073C4.43443 4.65711 4.87627 4.36956 5.36475 4.18923C6.03385 3.94107 6.74066 3.80991 7.45425 3.80148C8.64 3.74748 9 3.73398 12 3.73398ZM12 1.70898C8.9445 1.70898 8.56125 1.72173 7.362 1.77648C6.42842 1.79626 5.5049 1.97377 4.6305 2.30148C3.88032 2.58382 3.20059 3.02605 2.6385 3.59748C2.06626 4.15935 1.62324 4.8391 1.34025 5.58948C1.01253 6.46388 0.83503 7.3874 0.81525 8.32098C0.76275 9.52023 0.75 9.90348 0.75 12.959C0.75 16.0145 0.76275 16.3977 0.8175 17.597C0.83728 18.5306 1.01478 19.4541 1.3425 20.3285C1.62549 21.0789 2.06851 21.7586 2.64075 22.3205C3.20262 22.8927 3.88237 23.3357 4.63275 23.6187C5.50715 23.9465 6.43067 24.124 7.36425 24.1437C8.56425 24.1985 8.94675 24.2112 12.0023 24.2112C15.0578 24.2112 15.441 24.1985 16.6403 24.1437C17.5738 24.124 18.4974 23.9465 19.3718 23.6187C20.1188 23.3292 20.7972 22.887 21.3638 22.3205C21.9303 21.754 22.3724 21.0755 22.662 20.3285C22.9897 19.4541 23.1672 18.5306 23.187 17.597C23.2418 16.397 23.2545 16.0145 23.2545 12.959C23.2545 9.90348 23.2418 9.52023 23.187 8.32098C23.1672 7.3874 22.9897 6.46388 22.662 5.58948C22.379 4.8391 21.936 4.15935 21.3638 3.59748C20.8019 3.02524 20.1221 2.58223 19.3718 2.29923C18.4974 1.97152 17.5738 1.79401 16.6403 1.77423C15.4388 1.72173 15.0555 1.70898 12 1.70898Z" fill="white" fill-opacity="0.32"/>
<path d="M12 7.18359C10.8578 7.18359 9.74126 7.52229 8.79157 8.15686C7.84187 8.79142 7.10168 9.69335 6.66458 10.7486C6.22749 11.8038 6.11312 12.965 6.33595 14.0852C6.55878 15.2055 7.1088 16.2345 7.91644 17.0421C8.72409 17.8498 9.7531 18.3998 10.8733 18.6226C11.9936 18.8455 13.1547 18.7311 14.21 18.294C15.2652 17.8569 16.1672 17.1167 16.8017 16.167C17.4363 15.2173 17.775 14.1008 17.775 12.9586C17.775 11.427 17.1665 9.95807 16.0835 8.87505C15.0005 7.79203 13.5316 7.18359 12 7.18359ZM12 16.7086C11.2583 16.7086 10.5333 16.4887 9.9166 16.0766C9.29991 15.6646 8.81927 15.0789 8.53544 14.3937C8.25161 13.7084 8.17735 12.9544 8.32204 12.227C8.46674 11.4996 8.82389 10.8314 9.34834 10.3069C9.87278 9.7825 10.541 9.42534 11.2684 9.28065C11.9958 9.13595 12.7498 9.21022 13.435 9.49405C14.1203 9.77787 14.7059 10.2585 15.118 10.8752C15.5301 11.4919 15.75 12.2169 15.75 12.9586C15.75 13.9532 15.3549 14.907 14.6516 15.6102C13.9484 16.3135 12.9945 16.7086 12 16.7086Z" fill="white" fill-opacity="0.32"/>
<path d="M18.0052 8.30352C18.7508 8.30352 19.3552 7.6991 19.3552 6.95352C19.3552 6.20793 18.7508 5.60352 18.0052 5.60352C17.2597 5.60352 16.6552 6.20793 16.6552 6.95352C16.6552 7.6991 17.2597 8.30352 18.0052 8.30352Z" fill="white" fill-opacity="0.32"/>
</g>
<defs>
<clipPath id="clip0_6_45565">
<rect width="24" height="24" fill="white" transform="translate(0 0.958984)"/>
</clipPath>
</defs>
</svg>
