<svg width="24" height="25" viewBox="0 0 24 25" fill="none" xmlns="http://www.w3.org/2000/svg">
<g clip-path="url(#clip0_6_45570)">
<path fill-rule="evenodd" clip-rule="evenodd" d="M12 1.25879C5.4 1.25879 0 6.65879 0 13.2588C0 18.5838 3.45 23.0838 8.175 24.6588C8.775 24.7338 9 24.4338 9 24.0588C9 23.7588 9 23.0088 9 22.0338C5.625 22.7838 4.95 20.4588 4.95 20.4588C4.425 19.1088 3.6 18.7338 3.6 18.7338C2.475 17.9838 3.675 17.9838 3.675 17.9838C4.875 18.0588 5.55 19.1838 5.55 19.1838C6.6 20.9838 8.325 20.4588 9.075 20.1588C9.15 19.4088 9.525 18.8838 9.825 18.5838C7.125 18.2838 4.35 17.2338 4.35 12.6588C4.35 11.3838 4.8 10.2588 5.55 9.43379C5.4 9.13379 5.025 7.93379 5.7 6.28379C5.7 6.28379 6.675 5.98379 9 7.48379C9.975 7.18379 10.95 7.10879 12 7.10879C13.05 7.10879 14.025 7.25879 15 7.48379C17.325 5.90879 18.3 6.20879 18.3 6.20879C18.975 7.85879 18.525 9.05879 18.45 9.35879C19.2 10.1838 19.65 11.2338 19.65 12.5838C19.65 17.1588 16.875 18.2088 14.175 18.5088C14.625 18.8838 15 19.6338 15 20.7588C15 22.3338 15 23.6838 15 24.0588C15 24.3588 15.225 24.7338 15.825 24.6588C20.55 23.0838 24 18.5838 24 13.2588C24 6.65879 18.6 1.25879 12 1.25879Z" fill="white" fill-opacity="0.32"/>
</g>
<defs>
<clipPath id="clip0_6_45570">
<rect width="24" height="24" fill="white" transform="translate(0 0.958984)"/>
</clipPath>
</defs>
</svg>
