<svg width="24" height="25" viewBox="0 0 24 25" fill="none" xmlns="http://www.w3.org/2000/svg">
<g clip-path="url(#clip0_6_45562)">
<path d="M24 5.53398C23.1 5.90898 22.2 6.20898 21.15 6.28398C22.2 5.68398 22.95 4.70898 23.325 3.58398C22.35 4.18398 21.3 4.55898 20.175 4.78398C19.275 3.80898 18 3.20898 16.65 3.20898C13.95 3.20898 11.7 5.38398 11.7 8.15898C11.7 8.53398 11.775 8.90898 11.85 9.28398C7.72502 9.05898 4.12502 7.10898 1.65002 4.10898C1.20002 4.85898 0.975018 5.68398 0.975018 6.58398C0.975018 8.30898 1.87502 9.80898 3.15002 10.709C2.32502 10.709 1.57502 10.484 0.900018 10.109V10.184C0.900018 12.584 2.62502 14.534 4.87502 14.984C4.42502 15.059 4.05002 15.134 3.60002 15.134C3.30002 15.134 3.00002 15.134 2.70002 15.059C3.30002 17.009 5.17502 18.434 7.27502 18.509C5.62502 19.859 3.45002 20.609 1.12502 20.609C0.750018 20.609 0.300018 20.609 -0.0749817 20.534C2.17502 21.884 4.80002 22.709 7.57502 22.709C16.65 22.709 21.6 15.209 21.6 8.68398C21.6 8.45898 21.6 8.23398 21.6 8.08398C22.5 7.33398 23.325 6.50898 24 5.53398Z" fill="white" fill-opacity="0.32"/>
</g>
<defs>
<clipPath id="clip0_6_45562">
<rect width="24" height="24" fill="white" transform="translate(0 0.958984)"/>
</clipPath>
</defs>
</svg>
