<svg width="24" height="25" viewBox="0 0 24 25" fill="none" xmlns="http://www.w3.org/2000/svg">
<g clip-path="url(#clip0_6_45559)">
<path d="M24 12.96C23.9996 10.6669 23.3422 8.42179 22.1056 6.49063C20.8689 4.55948 19.1048 3.02309 17.0221 2.06338C14.9394 1.10366 12.6254 0.76079 10.3538 1.07537C8.08235 1.38994 5.94854 2.34879 4.20505 3.83839C2.46156 5.32799 1.18139 7.28597 0.516104 9.48052C-0.149185 11.6751 -0.171736 14.0143 0.451122 16.2213C1.07398 18.4283 2.31616 20.4105 4.03061 21.9335C5.74506 23.4564 7.85999 24.4562 10.125 24.8145V16.4288H7.0785V12.96H10.125V10.3163C10.125 7.30878 11.9167 5.64753 14.6572 5.64753C15.5573 5.66001 16.4551 5.73822 17.3438 5.88153V8.83503H15.8302C15.5723 8.80078 15.31 8.825 15.0628 8.90591C14.8155 8.98681 14.5896 9.12232 14.4018 9.3024C14.214 9.48248 14.0691 9.7025 13.978 9.94617C13.8868 10.1898 13.8516 10.4509 13.875 10.71V12.96H17.2035L16.671 16.4288H13.875V24.8145C16.6978 24.368 19.2686 22.9286 21.1248 20.7554C22.9809 18.5823 24.0005 15.818 24 12.96Z" fill="white" fill-opacity="0.32"/>
</g>
<defs>
<clipPath id="clip0_6_45559">
<rect width="24" height="24" fill="white" transform="translate(0 0.958984)"/>
</clipPath>
</defs>
</svg>
