<svg width="95" height="32" viewBox="0 0 95 32" fill="none" xmlns="http://www.w3.org/2000/svg">
<path d="M54.3157 6.71171V10.2986H46.8277V14.1735H52.4306V17.6557H46.8277V25.0913H42.3506V6.71171H54.3157Z" fill="white"/>
<path d="M61.1459 5.7168V25.0913H56.6688V5.7168H61.1459Z" fill="white"/>
<path d="M78.162 17.551C78.162 17.9699 78.1358 18.4062 78.0835 18.8601H67.9511C68.0209 19.7677 68.3089 20.4659 68.8151 20.9546C69.3387 21.4259 69.9758 21.6615 70.7264 21.6615C71.8434 21.6615 72.6202 21.1902 73.0565 20.2477H77.8216C77.5773 21.2077 77.1322 22.0717 76.4864 22.8397C75.858 23.6077 75.0638 24.2099 74.1038 24.6462C73.1438 25.0826 72.0704 25.3008 70.8834 25.3008C69.4522 25.3008 68.178 24.9953 67.0609 24.3844C65.9438 23.7735 65.0711 22.9008 64.4427 21.7663C63.8144 20.6317 63.5002 19.3052 63.5002 17.7866C63.5002 16.2681 63.8056 14.9415 64.4165 13.807C65.0449 12.6724 65.9176 11.7997 67.0347 11.1888C68.1518 10.5779 69.4347 10.2724 70.8834 10.2724C72.2973 10.2724 73.554 10.5692 74.6536 11.1626C75.7533 11.7561 76.6085 12.6026 77.2195 13.7023C77.8478 14.8019 78.162 16.0848 78.162 17.551ZM73.5802 16.3728C73.5802 15.6048 73.3184 14.9939 72.7947 14.5401C72.2711 14.0862 71.6165 13.8593 70.8311 13.8593C70.0805 13.8593 69.4434 14.0775 68.9198 14.5139C68.4136 14.9502 68.0994 15.5699 67.9773 16.3728H73.5802Z" fill="white"/>
<path d="M89.1639 25.0913L86.3624 21.0332L84.0061 25.0913H79.1624L83.9799 17.6295L79.0315 10.4819H84.0584L86.8599 14.5139L89.2162 10.4819H94.0599L89.1639 17.839L94.1908 25.0913H89.1639Z" fill="white"/>
<path d="M14.5979 9.94644C18.969 11.4921 23.6828 11.4063 28.011 9.73177C28.0539 7.97138 27.5825 6.21099 26.7683 4.62235L26.3398 3.76362C26.2112 3.80656 26.0398 3.89244 25.9541 3.97831C22.0116 5.8675 17.5548 6.12512 13.398 4.62235C10.484 3.59188 7.31285 3.8495 4.57024 5.22346L3.71317 5.65282C3.75602 5.78163 3.84174 5.95337 3.92745 6.03924C4.44169 7.15559 4.87021 8.3578 5.17019 9.60296C8.16992 8.74423 11.5125 8.8301 14.5979 9.94644Z" fill="#C69B39"/>
<path d="M3.92754 22.87L4.8703 22.3548C6.78059 21.3978 8.888 20.9345 10.979 20.9956C12.2652 21.0332 13.5453 21.2692 14.7694 21.7107C15.1682 21.8525 15.5682 21.9827 15.9693 22.1013L15.9693 26.6779C14.3101 26.3689 12.6305 26.3247 10.979 26.5377C9.26578 26.7587 7.58287 27.2564 5.9845 28.0224C5.89879 28.1082 5.72737 28.1941 5.59881 28.237L5.17028 27.3783C4.44177 25.9614 4.01325 24.4157 3.92754 22.87Z" fill="#C69B39"/>
<path d="M4.44164 18.9201C8.08418 17.4174 12.1553 17.2885 15.8835 18.6196C19.3118 19.8218 22.9543 20.0365 26.3826 19.2636C26.3397 17.3315 26.5968 15.4423 27.2825 13.5531C22.7829 14.8841 17.9405 14.7553 13.4409 13.1667C10.8697 12.2221 8.04133 12.2221 5.47012 13.0808C5.51298 14.927 5.17016 16.8162 4.52736 18.6625C4.52736 18.6625 4.48449 18.7913 4.44164 18.9201Z" fill="#C69B39"/>
</svg>
