<?xml version="1.0" encoding="utf-8"?><svg width="28" height="28" xmlns="http://www.w3.org/2000/svg" viewBox="0 0 28 28"><path d="M23.333 18.083c-1.458 0-2.858-.233-4.165-.665a1.3 1.3 0 00-.361-.058c-.304 0-.595.117-.829.338l-2.566 2.567a17.553 17.553 0 01-7.689-7.688l2.567-2.579a1.12 1.12 0 00.292-1.166 13.253 13.253 0 01-.665-4.165A1.17 1.17 0 008.75 3.5H4.667A1.17 1.17 0 003.5 4.667C3.5 15.622 12.378 24.5 23.333 24.5a1.17 1.17 0 001.167-1.167V19.25a1.17 1.17 0 00-1.167-1.167zM5.868 5.833h1.75c.082 1.027.257 2.042.525 3.01l-1.4 1.412a17.906 17.906 0 01-.875-4.422zm16.299 16.299a17.387 17.387 0 01-4.434-.887l1.4-1.4c.992.28 2.007.455 3.034.525v1.762z" fill="currentColor"/></svg>