<?xml version="1.0" encoding="utf-8"?><svg width="95" height="32" fill="none" xmlns="http://www.w3.org/2000/svg" viewBox="0 0 95 32"><path d="M54.316 6.712v3.587h-7.488v3.875h5.603v3.482h-5.603v7.435H42.35V6.711h11.965zM61.146 5.717V25.09h-4.477V5.717h4.477zM78.162 17.551c0 .419-.026.855-.079 1.31H67.951c.07.907.358 1.605.864 2.094.524.47 1.16.707 1.911.707 1.117 0 1.894-.472 2.33-1.414h4.766a6.453 6.453 0 01-1.336 2.592c-.628.768-1.422 1.37-2.382 1.806-.96.437-2.034.655-3.22.655-1.432 0-2.706-.306-3.823-.917a6.518 6.518 0 01-2.618-2.618c-.629-1.134-.943-2.46-.943-3.98 0-1.518.306-2.845.916-3.979a6.518 6.518 0 012.619-2.618c1.117-.611 2.4-.917 3.848-.917 1.414 0 2.671.297 3.77.89a6.307 6.307 0 012.566 2.54c.629 1.1.943 2.383.943 3.849zm-4.582-1.178c0-.768-.262-1.38-.785-1.833-.524-.454-1.178-.68-1.964-.68-.75 0-1.388.218-1.911.654-.506.436-.82 1.056-.943 1.859h5.603zM89.164 25.091l-2.802-4.058-2.356 4.058h-4.844l4.818-7.462-4.949-7.147h5.027l2.802 4.032 2.356-4.032h4.844l-4.896 7.357 5.027 7.252h-5.027z" fill="#fff"/><path d="M14.598 9.946c4.371 1.546 9.085 1.46 13.413-.214.043-1.76-.428-3.521-1.243-5.11l-.428-.858c-.129.043-.3.128-.386.214-3.942 1.89-8.4 2.147-12.556.644-2.914-1.03-6.085-.772-8.828.601l-.857.43c.043.129.129.3.214.386A19.446 19.446 0 015.17 9.603c3-.859 6.342-.773 9.428.343zM3.928 22.87l.942-.515a12.83 12.83 0 016.109-1.36 12.22 12.22 0 013.79.716c.4.142.8.272 1.2.39v4.577a16.025 16.025 0 00-4.99-.14 16.405 16.405 0 00-4.994 1.484 1.123 1.123 0 01-.386.215l-.429-.859a11.27 11.27 0 01-1.242-4.508zM4.442 18.92c3.642-1.503 7.713-1.632 11.441-.3 3.429 1.202 7.071 1.416 10.5.644-.043-1.933.214-3.822.9-5.71-4.5 1.33-9.343 1.201-13.842-.387-2.571-.945-5.4-.945-7.97-.086.042 1.846-.3 3.735-.944 5.582l-.085.257z" fill="#C69B39"/></svg>