<?xml version="1.0" encoding="utf-8"?><svg width="122" height="34" fill="none" xmlns="http://www.w3.org/2000/svg" viewBox="0 0 122 34"><g clip-path="url(#iclip0_6_45866)"><path d="M68.065 4.32v4.763H58.1v5.144h7.457v4.623H58.1v9.872h-5.96V4.32h15.926zM77.156 3v25.722h-5.959V3h5.96zM99.805 18.711c0 .556-.035 1.136-.104 1.738H86.214c.093 1.205.477 2.132 1.15 2.78.697.627 1.545.94 2.544.94 1.487 0 2.52-.626 3.102-1.878h6.342a8.56 8.56 0 01-1.777 3.442c-.837 1.02-1.894 1.819-3.171 2.398-1.278.58-2.707.869-4.287.869-1.905 0-3.6-.405-5.088-1.217-1.486-.81-2.648-1.97-3.484-3.476-.837-1.506-1.255-3.267-1.255-5.283 0-2.016.407-3.777 1.22-5.283.836-1.507 1.998-2.665 3.485-3.476 1.486-.811 3.194-1.217 5.122-1.217 1.882 0 3.555.394 5.018 1.182a8.384 8.384 0 013.416 3.372c.836 1.46 1.254 3.163 1.254 5.11zm-6.098-1.564c0-1.02-.349-1.83-1.046-2.433-.697-.603-1.568-.904-2.613-.904-1 0-1.847.29-2.544.87-.674.579-1.092 1.401-1.255 2.467h7.458zM114.449 28.722l-3.729-5.388-3.136 5.388h-6.447l6.412-9.907-6.587-9.489h6.691l3.729 5.353 3.136-5.353h6.447l-6.516 9.768 6.691 9.628h-6.691z" fill="#231F20"/><path d="M15.167 9.007c5.804 2.053 12.064 1.938 17.811-.285.057-2.338-.569-4.675-1.65-6.785l-.57-1.14c-.17.057-.398.171-.511.285-5.235 2.509-11.153 2.85-16.673.855C9.704.57 5.494.911 1.852 2.736l-1.138.57c.057.17.17.399.285.513a25.82 25.82 0 011.65 4.732c3.983-1.14 8.421-1.026 12.518.456zM.999 26.168l1.251-.684a17.038 17.038 0 018.112-1.805c1.708.05 3.408.364 5.033.95.53.188 1.06.36 1.593.518v6.078a21.278 21.278 0 00-6.626-.187A21.79 21.79 0 003.73 33.01c-.114.114-.342.228-.512.285l-.57-1.14a14.964 14.964 0 01-1.65-5.987zM1.681 20.923c4.837-1.996 10.243-2.167 15.193-.4 4.553 1.597 9.39 1.882 13.942.856-.057-2.566.284-5.074 1.195-7.583-5.975 1.768-12.405 1.597-18.38-.513-3.414-1.254-7.17-1.254-10.584-.114.057 2.451-.398 4.96-1.252 7.412l-.114.342z" fill="#C69B39"/></g><defs><clipPath id="iclip0_6_45866"><path fill="#fff" d="M0 0h122v34H0z"/></clipPath></defs></svg>