<?xml version="1.0" encoding="utf-8"?><svg viewBox="0 0 122 34" xmlns="http://www.w3.org/2000/svg" xmlns:xlink="http://www.w3.org/1999/xlink"><style>:root>svg{display:none}:root>svg:target{display:block}</style><svg viewBox="0 0 34 34" id="closer" xmlns="http://www.w3.org/2000/svg"><path fill-rule="evenodd" clip-rule="evenodd" d="M26.43 9.43l-1.416-1.416-7.6 7.599-8.013-8.014-1.417 1.417 8.014 8.013-7.984 7.985L9.43 26.43l7.985-7.984 7.57 7.57 1.416-1.417-7.57-7.57 7.6-7.599z" fill="currentColor"/></svg><svg viewBox="0 0 28 28" id="icon-plus" xmlns="http://www.w3.org/2000/svg"><path d="M14 26.25a12.25 12.25 0 110-24.5 12.25 12.25 0 010 24.5zM14 28a14 14 0 100-28 14 14 0 000 28z" fill="currentColor"/><path d="M14 7a.875.875 0 01.875.875v5.25h5.25a.875.875 0 110 1.75h-5.25v5.25a.875.875 0 11-1.75 0v-5.25h-5.25a.875.875 0 010-1.75h5.25v-5.25A.875.875 0 0114 7z" fill="currentColor"/></svg><svg viewBox="0 0 28 28" id="icon-plus-dark" xmlns="http://www.w3.org/2000/svg"><path d="M28 14a14 14 0 11-28 0 14 14 0 0128 0zM14.875 7.875a.875.875 0 00-1.75 0v5.25h-5.25a.875.875 0 000 1.75h5.25v5.25a.875.875 0 101.75 0v-5.25h5.25a.875.875 0 100-1.75h-5.25v-5.25z" fill="currentColor"/></svg><svg fill="none" viewBox="0 0 24 25" id="logo-facebook" xmlns="http://www.w3.org/2000/svg"><g clip-path="url(#dclip0_6_45559)"><path d="M24 12.96a12 12 0 10-13.875 11.854V16.43H7.079V12.96h3.046v-2.644c0-3.007 1.792-4.668 4.532-4.668.9.012 1.798.09 2.687.234v2.953H15.83a1.733 1.733 0 00-1.955 1.875v2.25h3.328l-.532 3.469h-2.796v8.386A12 12 0 0024 12.96z" fill="#fff" fill-opacity=".32"/></g><defs><clipPath id="dclip0_6_45559"><path fill="#fff" transform="translate(0 .959)" d="M0 0h24v24H0z"/></clipPath></defs></svg><svg fill="none" viewBox="0 0 24 25" id="logo-github" xmlns="http://www.w3.org/2000/svg"><g clip-path="url(#eclip0_6_45570)"><path fill-rule="evenodd" clip-rule="evenodd" d="M12 1.259c-6.6 0-12 5.4-12 12 0 5.325 3.45 9.825 8.175 11.4.6.075.825-.225.825-.6v-2.025c-3.375.75-4.05-1.575-4.05-1.575-.525-1.35-1.35-1.725-1.35-1.725-1.125-.75.075-.75.075-.75 1.2.075 1.875 1.2 1.875 1.2 1.05 1.8 2.775 1.275 3.525.975a2.59 2.59 0 01.75-1.575c-2.7-.3-5.475-1.35-5.475-5.925 0-1.275.45-2.4 1.2-3.225-.15-.3-.525-1.5.15-3.15 0 0 .975-.3 3.3 1.2.975-.3 1.95-.375 3-.375s2.025.15 3 .375c2.325-1.575 3.3-1.275 3.3-1.275.675 1.65.225 2.85.15 3.15.75.825 1.2 1.875 1.2 3.225 0 4.575-2.775 5.625-5.475 5.925.45.375.825 1.125.825 2.25v3.3c0 .3.225.675.825.6A12.015 12.015 0 0024 13.259c0-6.6-5.4-12-12-12z" fill="#fff" fill-opacity=".32"/></g><defs><clipPath id="eclip0_6_45570"><path fill="#fff" transform="translate(0 .959)" d="M0 0h24v24H0z"/></clipPath></defs></svg><svg fill="none" viewBox="0 0 24 25" id="logo-instagram" xmlns="http://www.w3.org/2000/svg"><g clip-path="url(#fclip0_6_45565)" fill="#fff" fill-opacity=".32"><path d="M12 3.734c3 0 3.36.011 4.546.065a6.22 6.22 0 012.09.388c.488.18.93.468 1.292.841.374.363.661.805.842 1.293.248.67.38 1.376.387 2.09.055 1.188.068 1.548.068 4.548s-.011 3.36-.065 4.546a6.22 6.22 0 01-.388 2.09 3.728 3.728 0 01-2.134 2.134c-.67.248-1.376.38-2.09.387-1.186.055-1.542.066-4.546.066-3.004 0-3.36-.011-4.546-.066a6.218 6.218 0 01-2.089-.387 3.482 3.482 0 01-1.293-.842 3.482 3.482 0 01-.841-1.293 6.22 6.22 0 01-.388-2.09c-.057-1.185-.07-1.541-.07-4.545s.011-3.36.065-4.546a6.22 6.22 0 01.388-2.09c.181-.488.47-.93.844-1.292a3.483 3.483 0 011.293-.842 6.22 6.22 0 012.09-.388C8.64 3.747 9 3.734 12 3.734zm0-2.025c-3.056 0-3.439.013-4.638.067a8.283 8.283 0 00-2.732.525c-.75.283-1.43.725-1.991 1.296A5.523 5.523 0 001.34 5.59a8.283 8.283 0 00-.525 2.732C.763 9.521.75 9.903.75 12.959s.013 3.439.068 4.638c.02.934.197 1.857.525 2.731.282.75.726 1.43 1.298 1.992a5.524 5.524 0 001.992 1.299 8.279 8.279 0 002.731.525c1.2.055 1.583.067 4.638.067 3.056 0 3.439-.012 4.638-.067a8.28 8.28 0 002.732-.525 5.763 5.763 0 003.29-3.29 8.284 8.284 0 00.525-2.732c.055-1.2.067-1.582.067-4.638s-.012-3.439-.067-4.638a8.284 8.284 0 00-.525-2.732 5.524 5.524 0 00-1.298-1.992A5.524 5.524 0 0019.372 2.3a8.284 8.284 0 00-2.732-.525C15.44 1.722 15.055 1.71 12 1.71z"/><path d="M12 7.184a5.775 5.775 0 100 11.55 5.775 5.775 0 000-11.55zm0 9.525a3.75 3.75 0 110-7.5 3.75 3.75 0 010 7.5zM18.005 8.304a1.35 1.35 0 100-2.7 1.35 1.35 0 000 2.7z"/></g><defs><clipPath id="fclip0_6_45565"><path fill="#fff" transform="translate(0 .959)" d="M0 0h24v24H0z"/></clipPath></defs></svg><svg fill="none" viewBox="0 0 24 25" id="logo-twitter" xmlns="http://www.w3.org/2000/svg"><g clip-path="url(#gclip0_6_45562)"><path d="M24 5.534c-.9.375-1.8.675-2.85.75 1.05-.6 1.8-1.575 2.175-2.7-.975.6-2.025.975-3.15 1.2-.9-.975-2.175-1.575-3.525-1.575-2.7 0-4.95 2.175-4.95 4.95 0 .375.075.75.15 1.125-4.125-.225-7.725-2.175-10.2-5.175a4.72 4.72 0 00-.675 2.475c0 1.725.9 3.225 2.175 4.125a4.582 4.582 0 01-2.25-.6v.075c0 2.4 1.725 4.35 3.975 4.8-.45.075-.825.15-1.275.15-.3 0-.6 0-.9-.075.6 1.95 2.475 3.375 4.575 3.45-1.65 1.35-3.825 2.1-6.15 2.1-.375 0-.825 0-1.2-.075 2.25 1.35 4.875 2.175 7.65 2.175 9.075 0 14.025-7.5 14.025-14.025v-.6c.9-.75 1.725-1.575 2.4-2.55z" fill="#fff" fill-opacity=".32"/></g><defs><clipPath id="gclip0_6_45562"><path fill="#fff" transform="translate(0 .959)" d="M0 0h24v24H0z"/></clipPath></defs></svg><svg viewBox="0 0 28 28" id="phone-forwarded" xmlns="http://www.w3.org/2000/svg"><path d="M23.333 18.083c-1.458 0-2.858-.233-4.165-.665a1.3 1.3 0 00-.361-.058c-.304 0-.595.117-.829.338l-2.566 2.567a17.553 17.553 0 01-7.689-7.688l2.567-2.579a1.12 1.12 0 00.292-1.166 13.253 13.253 0 01-.665-4.165A1.17 1.17 0 008.75 3.5H4.667A1.17 1.17 0 003.5 4.667C3.5 15.622 12.378 24.5 23.333 24.5a1.17 1.17 0 001.167-1.167V19.25a1.17 1.17 0 00-1.167-1.167zM5.868 5.833h1.75c.082 1.027.257 2.042.525 3.01l-1.4 1.412a17.906 17.906 0 01-.875-4.422zm16.299 16.299a17.387 17.387 0 01-4.434-.887l1.4-1.4c.992.28 2.007.455 3.034.525v1.762z" fill="currentColor"/></svg><svg fill="none" viewBox="0 0 122 34" id="project-logo" xmlns="http://www.w3.org/2000/svg"><g clip-path="url(#iclip0_6_45866)"><path d="M68.065 4.32v4.763H58.1v5.144h7.457v4.623H58.1v9.872h-5.96V4.32h15.926zM77.156 3v25.722h-5.959V3h5.96zM99.805 18.711c0 .556-.035 1.136-.104 1.738H86.214c.093 1.205.477 2.132 1.15 2.78.697.627 1.545.94 2.544.94 1.487 0 2.52-.626 3.102-1.878h6.342a8.56 8.56 0 01-1.777 3.442c-.837 1.02-1.894 1.819-3.171 2.398-1.278.58-2.707.869-4.287.869-1.905 0-3.6-.405-5.088-1.217-1.486-.81-2.648-1.97-3.484-3.476-.837-1.506-1.255-3.267-1.255-5.283 0-2.016.407-3.777 1.22-5.283.836-1.507 1.998-2.665 3.485-3.476 1.486-.811 3.194-1.217 5.122-1.217 1.882 0 3.555.394 5.018 1.182a8.384 8.384 0 013.416 3.372c.836 1.46 1.254 3.163 1.254 5.11zm-6.098-1.564c0-1.02-.349-1.83-1.046-2.433-.697-.603-1.568-.904-2.613-.904-1 0-1.847.29-2.544.87-.674.579-1.092 1.401-1.255 2.467h7.458zM114.449 28.722l-3.729-5.388-3.136 5.388h-6.447l6.412-9.907-6.587-9.489h6.691l3.729 5.353 3.136-5.353h6.447l-6.516 9.768 6.691 9.628h-6.691z" fill="#231F20"/><path d="M15.167 9.007c5.804 2.053 12.064 1.938 17.811-.285.057-2.338-.569-4.675-1.65-6.785l-.57-1.14c-.17.057-.398.171-.511.285-5.235 2.509-11.153 2.85-16.673.855C9.704.57 5.494.911 1.852 2.736l-1.138.57c.057.17.17.399.285.513a25.82 25.82 0 011.65 4.732c3.983-1.14 8.421-1.026 12.518.456zM.999 26.168l1.251-.684a17.038 17.038 0 018.112-1.805c1.708.05 3.408.364 5.033.95.53.188 1.06.36 1.593.518v6.078a21.278 21.278 0 00-6.626-.187A21.79 21.79 0 003.73 33.01c-.114.114-.342.228-.512.285l-.57-1.14a14.964 14.964 0 01-1.65-5.987zM1.681 20.923c4.837-1.996 10.243-2.167 15.193-.4 4.553 1.597 9.39 1.882 13.942.856-.057-2.566.284-5.074 1.195-7.583-5.975 1.768-12.405 1.597-18.38-.513-3.414-1.254-7.17-1.254-10.584-.114.057 2.451-.398 4.96-1.252 7.412l-.114.342z" fill="#C69B39"/></g><defs><clipPath id="iclip0_6_45866"><path fill="#fff" d="M0 0h122v34H0z"/></clipPath></defs></svg><svg fill="none" viewBox="0 0 95 32" id="project-logo-white" xmlns="http://www.w3.org/2000/svg"><path d="M54.316 6.712v3.587h-7.488v3.875h5.603v3.482h-5.603v7.435H42.35V6.711h11.965zM61.146 5.717V25.09h-4.477V5.717h4.477zM78.162 17.551c0 .419-.026.855-.079 1.31H67.951c.07.907.358 1.605.864 2.094.524.47 1.16.707 1.911.707 1.117 0 1.894-.472 2.33-1.414h4.766a6.453 6.453 0 01-1.336 2.592c-.628.768-1.422 1.37-2.382 1.806-.96.437-2.034.655-3.22.655-1.432 0-2.706-.306-3.823-.917a6.518 6.518 0 01-2.618-2.618c-.629-1.134-.943-2.46-.943-3.98 0-1.518.306-2.845.916-3.979a6.518 6.518 0 012.619-2.618c1.117-.611 2.4-.917 3.848-.917 1.414 0 2.671.297 3.77.89a6.307 6.307 0 012.566 2.54c.629 1.1.943 2.383.943 3.849zm-4.582-1.178c0-.768-.262-1.38-.785-1.833-.524-.454-1.178-.68-1.964-.68-.75 0-1.388.218-1.911.654-.506.436-.82 1.056-.943 1.859h5.603zM89.164 25.091l-2.802-4.058-2.356 4.058h-4.844l4.818-7.462-4.949-7.147h5.027l2.802 4.032 2.356-4.032h4.844l-4.896 7.357 5.027 7.252h-5.027z" fill="#fff"/><path d="M14.598 9.946c4.371 1.546 9.085 1.46 13.413-.214.043-1.76-.428-3.521-1.243-5.11l-.428-.858c-.129.043-.3.128-.386.214-3.942 1.89-8.4 2.147-12.556.644-2.914-1.03-6.085-.772-8.828.601l-.857.43c.043.129.129.3.214.386A19.446 19.446 0 015.17 9.603c3-.859 6.342-.773 9.428.343zM3.928 22.87l.942-.515a12.83 12.83 0 016.109-1.36 12.22 12.22 0 013.79.716c.4.142.8.272 1.2.39v4.577a16.025 16.025 0 00-4.99-.14 16.405 16.405 0 00-4.994 1.484 1.123 1.123 0 01-.386.215l-.429-.859a11.27 11.27 0 01-1.242-4.508zM4.442 18.92c3.642-1.503 7.713-1.632 11.441-.3 3.429 1.202 7.071 1.416 10.5.644-.043-1.933.214-3.822.9-5.71-4.5 1.33-9.343 1.201-13.842-.387-2.571-.945-5.4-.945-7.97-.086.042 1.846-.3 3.735-.944 5.582l-.085.257z" fill="#C69B39"/></svg></svg>